<svg width="33" height="32" viewBox="0 0 33 32" fill="none" xmlns="http://www.w3.org/2000/svg">
<path fill-rule="evenodd" clip-rule="evenodd" d="M0.65625 16C0.65625 25.1807 7.3045 31.8438 16.4709 31.8438C25.6692 31.8438 32.3447 25.1807 32.3447 16C32.3447 6.81926 25.6373 0.15625 16.4709 0.15625C7.3045 0.15625 0.65625 6.81926 0.65625 16ZM2.9061 16C2.9061 7.97922 8.48425 2.38175 16.4713 2.38175C24.4901 2.38175 30.0956 7.97922 30.0956 16C30.0956 24.0208 24.4901 29.6183 16.4713 29.6183C8.61175 29.6183 2.9061 23.8904 2.9061 16ZM16.4706 26.1114C10.6192 26.1114 6.37073 21.8582 6.37073 16C6.37073 10.1418 10.6192 5.88859 16.4706 5.88859C22.322 5.88859 26.616 10.1553 26.616 16C26.616 21.8447 22.3539 26.1114 16.4797 26.1114H16.4706ZM8.62057 16.018C8.62057 11.3737 11.8491 8.12758 16.471 8.12758L16.4801 8.1096C21.1248 8.1096 24.3897 11.3557 24.3897 16C24.3897 20.6443 21.0929 23.9084 16.471 23.9084C11.8491 23.9084 8.62057 20.6623 8.62057 16.018ZM16.4711 20.397C15.2915 20.4149 14.156 19.9548 13.3292 19.124C12.5023 18.2932 12.0563 17.1642 12.0951 16C12.0951 14.4516 12.9317 13.0208 14.2899 12.2466C15.6481 11.4723 17.3214 11.4723 18.6796 12.2466C20.0377 13.0208 20.8744 14.4516 20.8744 16C20.9055 17.1612 20.4558 18.2846 19.6291 19.1111C18.8024 19.9375 17.6702 20.3954 16.4938 20.3791L16.4711 20.397ZM14.4226 15.1637C14.7739 14.3587 15.5834 13.8435 16.471 13.8599L16.4937 13.8419C17.0781 13.8183 17.6447 14.0428 18.0504 14.4588C18.456 14.8748 18.6618 15.4423 18.6157 16.018C18.6156 16.8945 18.0785 17.6838 17.2567 18.0153C16.4349 18.3469 15.4916 18.1547 14.8699 17.5291C14.2481 16.9035 14.0714 15.9687 14.4226 15.1637Z" fill="#00A0CC"/>
</svg>
